<svg xmlns="http://www.w3.org/2000/svg" width="256px" height="256px" viewBox="-12.95 0 101.843 101.843">
	<path style="fill: #FFFFFF; stroke: #111111;" d="M 2.347 99.236 L 2.254 84.865 L 8.095 81.342 L 9.486 74.481 L 16.996 71.885 L 22.93 56.031 L 23.393 37.951 L 17.181 35.911 C 17.181 35.911 16.161 28.679 16.161 28.587 C 16.161 28.495 11.989 28.123 11.989 28.123 L 6.704 1.514 L 21.353 1.792 L 24.042 14.587 L 30.161 14.216 L 30.81 1.977 L 44.625 1.977 L 45.089 13.938 L 51.672 14.03 L 54.638 1.328 L 69.102 2.07 L 63.632 28.494 L 58.44 29.328 L 59.738 35.633 L 53.062 38.507 L 53.433 56.123 L 59.645 72.163 L 66.691 74.481 L 68.917 82.455 C 68.917 82.455 74.201 86.441 74.109 86.441 C 74.017 86.441 73.738 99.607 73.738 99.607"></path>	<g id="SVGRepo_bgCarrier" stroke-width="0"/>	<g id="SVGRepo_tracerCarrier" stroke-linecap="round" stroke-linejoin="round" stroke="#CCCCCC" stroke-width="0.20368599999999998"/>	<g id="SVGRepo_iconCarrier"> <path id="Path_32" data-name="Path 32" d="M511.607,374.247v-2.722a7.176,7.176,0,0,0-7.161-7.164h-1.435c-5.443-7.848-6.731-18.493-6.713-26.125,0-1.768.065-3.364.154-4.726H497.9a6.264,6.264,0,0,0,6-6.474,6.918,6.918,0,0,0-.536-2.648h2.194a2,2,0,0,0,1.96-1.6l5.422-26.848a2,2,0,0,0-1.96-2.4H496.528a2,2,0,0,0-1.956,1.58l-2.416,11.241h-3.439l0-10.821a2,2,0,0,0-2-2h-14.2a2,2,0,0,0-2,2v10.821h-3.012l-2.414-11.241a2,2,0,0,0-1.954-1.58H448.682a2,2,0,0,0-1.96,2.4l5.419,26.848a2,2,0,0,0,1.961,1.6H456.3a6.9,6.9,0,0,0-.535,2.648,6.261,6.261,0,0,0,6,6.474h1.449c.089,1.366.156,2.95.155,4.721.018,7.632-1.268,18.28-6.712,26.13h-1.432a7.176,7.176,0,0,0-7.162,7.164v2.722a7.173,7.173,0,0,0-6.2,7.088v12.046a2,2,0,0,0,2,2H515.8a2,2,0,0,0,2-2V381.335A7.174,7.174,0,0,0,511.607,374.247Zm-55.87-53.859-4.611-22.848h10.4l2.414,11.241a2,2,0,0,0,1.957,1.58h6.626a2,2,0,0,0,2-2V297.54h10.2v10.821a2,2,0,0,0,2,2h7.056a2,2,0,0,0,1.953-1.58l2.416-11.241h10.4l-4.613,22.848ZM513.8,391.382H445.861V381.335a3.2,3.2,0,0,1,3.165-3.164h1.014l.02,0,.019,0h30.2a2,2,0,1,0,0-4H452.059v-2.647a3.191,3.191,0,0,1,3.163-3.163h9.248a2,2,0,0,0,0-4h-3.09c4.954-8.585,5.972-18.761,5.988-26.13,0-1.749-.061-3.341-.146-4.721h12.76a2,2,0,1,0,0-4h-18.22a1.784,1.784,0,0,1-1.339-.644,2.864,2.864,0,0,1,0-3.663,1.788,1.788,0,0,1,1.339-.644H497.9a1.788,1.788,0,0,1,1.339.644,2.865,2.865,0,0,1,0,3.663,1.787,1.787,0,0,1-1.339.644H490.1a2,2,0,1,0,0,4h2.347c-.085,1.381-.145,2.975-.145,4.726.016,7.368,1.034,17.542,5.985,26.125H474.991a2,2,0,1,0,0,4h29.455a3.193,3.193,0,0,1,3.163,3.163v2.647h-7.956a2,2,0,1,0,0,4h9.937l.019,0,.02,0h1.012a3.2,3.2,0,0,1,3.162,3.164Zm-23.882-17.21h-1.765a2,2,0,0,0,0,4h1.765a2,2,0,1,0,0-4Z" transform="translate(-441.861 -293.54)" fill="#111111"/> </g></svg>